<?xml version="1.0" encoding="utf-8"?>
<!-- Designed by Vexels.com - 2016 All Rights Reserved - https://vexels.com/terms-and-conditions/  -->

<svg version="1.1" id="Capa_1" xmlns="http://www.w3.org/2000/svg" xmlns:xlink="http://www.w3.org/1999/xlink" x="0px" y="0px"
	 width="1200px" height="1200px" viewBox="0 0 1200 1200" enable-background="new 0 0 1200 1200" xml:space="preserve">
<g>
	<g>
		<path fill="#461300" d="M1149.241,657.451c-3.705-15.905-23.233-35.412-23.233-35.412
			c-40.209-73.161-207.414-104.895-207.414-104.895L732.235,403.331l-10.921-5.347l-12.529-5.027l-13.207-4.518l-12.435-3.048
			c-92.233-24.277-423.311-20.748-423.311-20.748c-52.429,1.255-69.527,29.302-69.527,29.302L96.385,511.06
			c-28.072,26.83-18.326,107.357-18.326,107.357c3.65,12.176-7.313,14.625-7.313,14.625C57.325,633.042,50,651.368,50,651.368
			c0,106.124,53.685,97.558,53.685,97.558c7.313-119.521,107.369-102.465,107.369-102.465
			c95.137-2.444,97.624,120.765,97.624,120.765h541.649c13.402-148.809,120.773-125.685,120.773-125.685
			c95.166,4.893,82.949,129.32,82.949,129.32l54.9-4.853C1158.947,761.134,1149.241,657.451,1149.241,657.451z M206.202,514.686
			c-7.34-40.236,31.697-90.271,31.697-90.271c23.181-37.816,58.548-34.143,58.548-34.143s119.561-2.472,137.887-1.217
			c18.275,1.217,17.031,12.177,17.031,12.177l8.557,120.765L206.202,514.686z M796.615,529.884l-275.696-7.886l-25.612-114.655
			c1.246-19.543,18.285-15.867,18.285-15.867c230.583-1.204,285.47,102.475,285.47,102.475
			C819.618,532.209,796.615,529.884,796.615,529.884z"/>
		<path fill="#461300" d="M955.007,672.062c-45.169,0-81.748,36.589-81.748,81.742c0,45.13,36.579,81.732,81.748,81.732
			c45.139,0,81.699-36.603,81.699-81.732C1036.711,708.65,1000.15,672.062,955.007,672.062z M955.007,795.287
			c-22.912,0-41.485-18.595-41.485-41.48c0-22.912,18.569-41.466,41.485-41.466c22.934,0,41.507,18.554,41.507,41.466
			C996.514,776.692,977.945,795.287,955.007,795.287z"/>
		<path fill="#461300" d="M208.621,672.062c-45.127,0-81.73,36.589-81.73,81.742c0,45.13,36.604,81.732,81.73,81.732
			c45.171,0,81.717-36.603,81.717-81.732C290.337,708.65,253.792,672.062,208.621,672.062z M208.621,795.287
			c-22.9,0-41.464-18.595-41.464-41.48c0-22.912,18.563-41.466,41.464-41.466c22.911,0,41.481,18.554,41.481,41.466
			C250.1,776.692,231.531,795.287,208.621,795.287z"/>
	</g>
</g>
</svg>
